<?xml version="1.0" standalone="no"?>
<!DOCTYPE svg PUBLIC "-//W3C//DTD SVG 20010904//EN" "http://www.w3.org/TR/2001/REC-SVG-20010904/DTD/svg10.dtd">
<!-- Created using Krita: https://krita.org -->
<svg xmlns="http://www.w3.org/2000/svg" 
    xmlns:xlink="http://www.w3.org/1999/xlink"
    xmlns:krita="http://krita.org/namespaces/svg/krita"
    xmlns:sodipodi="http://sodipodi.sourceforge.net/DTD/sodipodi-0.dtd"
    width="1440pt"
    height="1440pt"
    viewBox="0 0 1440 1440">
<defs/>
<g id="group0" transform="matrix(2.4,0,0,2.4,132.4,360.8)" fill="none">
  <path id="shape0" fill="#ffffff" fill-rule="evenodd" stroke="#000000" stroke-opacity="0" stroke-width="0" stroke-linecap="square" stroke-linejoin="bevel" d="M 453.6 116.8 C 450 162.3 404 236.4 307 239.5 L 253.5 225.3 L 250.7 216.4 L 204.4 211.5 L 161.1 201.4 C 120.3 213.6 61.4 236.5 39.7 241.6 L 25.7 239.8 L 4.1 243.1 L 0 240.3 C 55 212.8 115.6 193 179.2 177.4 L 198 166.2 C 201.5 156.6 244.8 124.8 261.7 117.4 L 337.8 65.9 L 354.9 51.7 C 361.7 41.5 369.4 31.6 377.3 21.9 L 363.5 15.5 C 375.4 8.8 389.2 3.7 404.5 0 L 418.2 0.3 C 443.7 4.6 460.6 13.9 469.4 27.7 C 482.4 41.8 493.8 55 490.8 60.6 C 488.9 61.9 470.8 62.3 460.8 64.1 L 453.4 101.3 L 453.6 116.8"/>
  <path id="shape1" transform="translate(278.2,228.7)" fill="#ffffff" fill-rule="evenodd" stroke="#000000" stroke-opacity="0" stroke-width="0" stroke-linecap="square" stroke-linejoin="bevel" d="M 0 4 L 7.6 14.9 L 40.5 53.6 L 39.6 54.5 L 25.9 55.5 L 22.7 57.1 L 26.8 64.2 L 52.9 69.4 L 74.4 71.6 L 96.7 69.8 L 90.8 63.3 L 70.1 62 L 63.3 59 L 17.7 9.8 L 17.8 5.7 L 0.4 0 L 0 4"/>
  <path id="shape01" transform="matrix(0.8,0,0,0.8,327.1,224.3)" fill="#ffffff" fill-rule="evenodd" stroke="#000000" stroke-opacity="0" stroke-width="0" stroke-linecap="square" stroke-linejoin="bevel" d="M 0 4 L 7.6 14.9 L 40.5 53.6 L 39.6 54.5 L 25.9 55.5 L 22.7 57.1 L 26.8 64.2 L 52.9 69.4 L 74.4 71.6 L 96.7 69.8 L 90.8 63.3 L 70.1 62 L 63.3 59 L 17.7 9.8 L 17.8 5.7 L 0.4 0 L 0 4"/>
 </g>
</svg>
